<mxfile host="app.diagrams.net" agent="Mozilla/5.0 (Windows NT 10.0; Win64; x64) AppleWebKit/537.36 (KHTML, like Gecko) Chrome/129.0.0.0 Safari/537.36" version="24.7.17">
  <diagram name="Page-1" id="fD3oFx35UN4b9yw6zkIM">
    <mxGraphModel dx="3980" dy="2223" grid="1" gridSize="10" guides="1" tooltips="1" connect="1" arrows="1" fold="1" page="1" pageScale="1" pageWidth="850" pageHeight="1100" math="0" shadow="0">
      <root>
        <mxCell id="0" />
        <mxCell id="1" parent="0" />
        <mxCell id="VEvwKwhvWMD62rh19tgJ-2" value="&lt;font style=&quot;font-size: 22px;&quot;&gt;START&lt;/font&gt;" style="ellipse;whiteSpace=wrap;html=1;fillColor=#d5e8d4;strokeColor=#82b366;strokeWidth=4;" vertex="1" parent="1">
          <mxGeometry x="40" y="350" width="160" height="100" as="geometry" />
        </mxCell>
        <mxCell id="VEvwKwhvWMD62rh19tgJ-3" value="" style="endArrow=classic;html=1;rounded=0;exitX=1;exitY=0.5;exitDx=0;exitDy=0;entryX=0;entryY=0.5;entryDx=0;entryDy=0;" edge="1" parent="1" source="VEvwKwhvWMD62rh19tgJ-2" target="VEvwKwhvWMD62rh19tgJ-35">
          <mxGeometry width="50" height="50" relative="1" as="geometry">
            <mxPoint x="560" y="520" as="sourcePoint" />
            <mxPoint x="370" y="400" as="targetPoint" />
          </mxGeometry>
        </mxCell>
        <mxCell id="VEvwKwhvWMD62rh19tgJ-5" value="" style="endArrow=classic;html=1;rounded=0;exitX=1;exitY=0.5;exitDx=0;exitDy=0;" edge="1" parent="1">
          <mxGeometry width="50" height="50" relative="1" as="geometry">
            <mxPoint x="520" y="399.33" as="sourcePoint" />
            <mxPoint x="690" y="399.33" as="targetPoint" />
          </mxGeometry>
        </mxCell>
        <mxCell id="VEvwKwhvWMD62rh19tgJ-6" value="&lt;font style=&quot;font-size: 19px;&quot;&gt;ENTER&amp;nbsp;&lt;/font&gt;&lt;div style=&quot;font-size: 19px;&quot;&gt;&lt;font style=&quot;font-size: 19px;&quot;&gt;SELECTED&lt;/font&gt;&lt;div style=&quot;&quot;&gt;&lt;font style=&quot;font-size: 19px;&quot;&gt;&amp;nbsp;OPTION&lt;/font&gt;&lt;/div&gt;&lt;/div&gt;" style="shape=parallelogram;perimeter=parallelogramPerimeter;whiteSpace=wrap;html=1;fixedSize=1;align=center;fillColor=#f5f5f5;fontColor=#333333;strokeColor=#666666;strokeWidth=4;" vertex="1" parent="1">
          <mxGeometry x="690" y="350" width="160" height="100" as="geometry" />
        </mxCell>
        <mxCell id="VEvwKwhvWMD62rh19tgJ-9" value="&lt;font style=&quot;font-size: 17px;&quot;&gt;Is selection&lt;/font&gt;&lt;div style=&quot;font-size: 17px;&quot;&gt;&lt;font style=&quot;font-size: 17px;&quot;&gt;Valid?&lt;/font&gt;&lt;/div&gt;" style="rhombus;whiteSpace=wrap;html=1;direction=south;fillColor=#fff2cc;strokeColor=#d6b656;gradientColor=#ffd966;strokeWidth=4;" vertex="1" parent="1">
          <mxGeometry x="1010" y="335" width="160" height="130" as="geometry" />
        </mxCell>
        <mxCell id="VEvwKwhvWMD62rh19tgJ-11" value="" style="endArrow=classic;html=1;rounded=0;exitX=1;exitY=0.5;exitDx=0;exitDy=0;" edge="1" parent="1">
          <mxGeometry width="50" height="50" relative="1" as="geometry">
            <mxPoint x="840" y="399.37" as="sourcePoint" />
            <mxPoint x="1010" y="399.37" as="targetPoint" />
          </mxGeometry>
        </mxCell>
        <mxCell id="VEvwKwhvWMD62rh19tgJ-12" value="" style="endArrow=classic;html=1;rounded=0;exitX=1;exitY=0.5;exitDx=0;exitDy=0;" edge="1" parent="1" source="VEvwKwhvWMD62rh19tgJ-9">
          <mxGeometry width="50" height="50" relative="1" as="geometry">
            <mxPoint x="1090" y="490" as="sourcePoint" />
            <mxPoint x="1090" y="690" as="targetPoint" />
          </mxGeometry>
        </mxCell>
        <mxCell id="VEvwKwhvWMD62rh19tgJ-14" value="&lt;font style=&quot;font-size: 17px;&quot;&gt;NO&lt;/font&gt;" style="edgeLabel;html=1;align=center;verticalAlign=middle;resizable=0;points=[];" vertex="1" connectable="0" parent="VEvwKwhvWMD62rh19tgJ-12">
          <mxGeometry x="-0.2602" relative="1" as="geometry">
            <mxPoint as="offset" />
          </mxGeometry>
        </mxCell>
        <mxCell id="VEvwKwhvWMD62rh19tgJ-16" value="" style="endArrow=classic;html=1;rounded=0;exitX=1;exitY=0.5;exitDx=0;exitDy=0;entryX=0.455;entryY=1.007;entryDx=0;entryDy=0;entryPerimeter=0;" edge="1" parent="1">
          <mxGeometry width="50" height="50" relative="1" as="geometry">
            <mxPoint x="1010" y="738.6799999999997" as="sourcePoint" />
            <mxPoint x="764.8000000000002" y="450.00000000000006" as="targetPoint" />
            <Array as="points">
              <mxPoint x="762" y="738.3" />
            </Array>
          </mxGeometry>
        </mxCell>
        <mxCell id="VEvwKwhvWMD62rh19tgJ-19" value="&lt;span style=&quot;font-size: 17px;&quot;&gt;CASE 1:&lt;br&gt;(EMPLOYEES)&lt;/span&gt;" style="rhombus;whiteSpace=wrap;html=1;direction=south;fillColor=#fff2cc;strokeColor=#d6b656;gradientColor=#ffd966;strokeWidth=4;" vertex="1" parent="1">
          <mxGeometry x="1340" y="332.5" width="160" height="135" as="geometry" />
        </mxCell>
        <mxCell id="VEvwKwhvWMD62rh19tgJ-22" value="&lt;span style=&quot;font-size: 17px;&quot;&gt;CASE 2:(REPORTS)&lt;/span&gt;" style="rhombus;whiteSpace=wrap;html=1;direction=south;fillColor=#fff2cc;strokeColor=#d6b656;gradientColor=#ffd966;strokeWidth=4;" vertex="1" parent="1">
          <mxGeometry x="1670" y="332.5" width="160" height="135" as="geometry" />
        </mxCell>
        <mxCell id="VEvwKwhvWMD62rh19tgJ-24" value="&lt;span style=&quot;font-size: 17px;&quot;&gt;CASE 3:&lt;/span&gt;&lt;div&gt;&lt;span style=&quot;font-size: 17px;&quot;&gt;(EXIT)&lt;/span&gt;&lt;/div&gt;" style="rhombus;whiteSpace=wrap;html=1;direction=south;fillColor=#fff2cc;strokeColor=#d6b656;gradientColor=#ffd966;strokeWidth=4;" vertex="1" parent="1">
          <mxGeometry x="2000" y="332.5" width="160" height="135" as="geometry" />
        </mxCell>
        <mxCell id="VEvwKwhvWMD62rh19tgJ-25" value="" style="endArrow=classic;html=1;rounded=0;exitX=1;exitY=0.5;exitDx=0;exitDy=0;" edge="1" parent="1">
          <mxGeometry width="50" height="50" relative="1" as="geometry">
            <mxPoint x="2079.38" y="467.5" as="sourcePoint" />
            <mxPoint x="2079" y="637.5" as="targetPoint" />
          </mxGeometry>
        </mxCell>
        <mxCell id="VEvwKwhvWMD62rh19tgJ-27" value="&lt;font style=&quot;font-size: 22px;&quot;&gt;END&lt;/font&gt;" style="ellipse;whiteSpace=wrap;html=1;fillColor=#f8cecc;strokeColor=#b85450;strokeWidth=4;" vertex="1" parent="1">
          <mxGeometry x="2000" y="637.5" width="160" height="100" as="geometry" />
        </mxCell>
        <mxCell id="VEvwKwhvWMD62rh19tgJ-28" value="" style="endArrow=classic;html=1;rounded=0;exitX=1;exitY=0.5;exitDx=0;exitDy=0;" edge="1" parent="1">
          <mxGeometry width="50" height="50" relative="1" as="geometry">
            <mxPoint x="1420" y="467.5" as="sourcePoint" />
            <mxPoint x="1420" y="600" as="targetPoint" />
          </mxGeometry>
        </mxCell>
        <mxCell id="VEvwKwhvWMD62rh19tgJ-29" value="&lt;font style=&quot;font-size: 23px;&quot;&gt;A&lt;/font&gt;" style="ellipse;whiteSpace=wrap;html=1;aspect=fixed;fillColor=#e1d5e7;strokeColor=#9673a6;" vertex="1" parent="1">
          <mxGeometry x="1380" y="600" width="80" height="80" as="geometry" />
        </mxCell>
        <mxCell id="VEvwKwhvWMD62rh19tgJ-30" value="" style="endArrow=classic;html=1;rounded=0;exitX=1;exitY=0.5;exitDx=0;exitDy=0;" edge="1" parent="1">
          <mxGeometry width="50" height="50" relative="1" as="geometry">
            <mxPoint x="1170" y="399.41" as="sourcePoint" />
            <mxPoint x="1340" y="399.41" as="targetPoint" />
          </mxGeometry>
        </mxCell>
        <mxCell id="VEvwKwhvWMD62rh19tgJ-31" value="" style="endArrow=classic;html=1;rounded=0;exitX=1;exitY=0.5;exitDx=0;exitDy=0;" edge="1" parent="1">
          <mxGeometry width="50" height="50" relative="1" as="geometry">
            <mxPoint x="1500" y="399.41" as="sourcePoint" />
            <mxPoint x="1670" y="399.41" as="targetPoint" />
          </mxGeometry>
        </mxCell>
        <mxCell id="VEvwKwhvWMD62rh19tgJ-32" value="" style="endArrow=classic;html=1;rounded=0;exitX=1;exitY=0.5;exitDx=0;exitDy=0;" edge="1" parent="1">
          <mxGeometry width="50" height="50" relative="1" as="geometry">
            <mxPoint x="1830" y="399.17" as="sourcePoint" />
            <mxPoint x="2000" y="399.17" as="targetPoint" />
          </mxGeometry>
        </mxCell>
        <mxCell id="VEvwKwhvWMD62rh19tgJ-33" value="&lt;font style=&quot;font-size: 23px;&quot;&gt;A&lt;/font&gt;" style="ellipse;whiteSpace=wrap;html=1;aspect=fixed;fillColor=#e1d5e7;strokeColor=#9673a6;" vertex="1" parent="1">
          <mxGeometry x="120" y="1180" width="80" height="80" as="geometry" />
        </mxCell>
        <mxCell id="VEvwKwhvWMD62rh19tgJ-34" value="" style="endArrow=classic;html=1;rounded=0;exitX=1;exitY=0.5;exitDx=0;exitDy=0;" edge="1" parent="1">
          <mxGeometry width="50" height="50" relative="1" as="geometry">
            <mxPoint x="159.17000000000007" y="1260" as="sourcePoint" />
            <mxPoint x="159.17000000000007" y="1392.5" as="targetPoint" />
          </mxGeometry>
        </mxCell>
        <mxCell id="VEvwKwhvWMD62rh19tgJ-35" value="&lt;span style=&quot;font-size: 19px;&quot;&gt;DISPLAY&lt;br&gt;OPTIONS&lt;/span&gt;" style="shape=parallelogram;perimeter=parallelogramPerimeter;whiteSpace=wrap;html=1;fixedSize=1;align=center;fillColor=#f5f5f5;fontColor=#333333;strokeColor=#666666;strokeWidth=4;" vertex="1" parent="1">
          <mxGeometry x="370" y="350" width="160" height="100" as="geometry" />
        </mxCell>
        <mxCell id="VEvwKwhvWMD62rh19tgJ-37" value="&lt;span style=&quot;font-size: 19px;&quot;&gt;DISPLAY&lt;br&gt;INVALID&lt;br&gt;MESSAGE&lt;/span&gt;" style="shape=parallelogram;perimeter=parallelogramPerimeter;whiteSpace=wrap;html=1;fixedSize=1;align=center;fillColor=#f5f5f5;fontColor=#333333;strokeColor=#666666;strokeWidth=4;" vertex="1" parent="1">
          <mxGeometry x="1010" y="690" width="160" height="100" as="geometry" />
        </mxCell>
        <mxCell id="VEvwKwhvWMD62rh19tgJ-38" value="&lt;span style=&quot;font-size: 19px;&quot;&gt;Display (Add, View, Update, Delete, Exit)&lt;/span&gt;&lt;div&gt;&lt;span style=&quot;font-size: 19px;&quot;&gt;Employees&lt;/span&gt;&lt;/div&gt;" style="shape=parallelogram;perimeter=parallelogramPerimeter;whiteSpace=wrap;html=1;fixedSize=1;align=center;fillColor=#f5f5f5;fontColor=#333333;strokeColor=#666666;strokeWidth=4;" vertex="1" parent="1">
          <mxGeometry x="80" y="1400" width="160" height="100" as="geometry" />
        </mxCell>
        <mxCell id="VEvwKwhvWMD62rh19tgJ-39" value="" style="endArrow=classic;html=1;rounded=0;exitX=1;exitY=0.5;exitDx=0;exitDy=0;" edge="1" parent="1">
          <mxGeometry width="50" height="50" relative="1" as="geometry">
            <mxPoint x="230" y="1449.33" as="sourcePoint" />
            <mxPoint x="400" y="1449.33" as="targetPoint" />
          </mxGeometry>
        </mxCell>
        <mxCell id="VEvwKwhvWMD62rh19tgJ-40" value="&lt;font style=&quot;font-size: 19px;&quot;&gt;ENTER&amp;nbsp;&lt;/font&gt;&lt;div style=&quot;font-size: 19px;&quot;&gt;&lt;font style=&quot;font-size: 19px;&quot;&gt;SELECTED&lt;/font&gt;&lt;div style=&quot;&quot;&gt;&lt;font style=&quot;font-size: 19px;&quot;&gt;&amp;nbsp;OPTION&lt;/font&gt;&lt;/div&gt;&lt;/div&gt;" style="shape=parallelogram;perimeter=parallelogramPerimeter;whiteSpace=wrap;html=1;fixedSize=1;align=center;fillColor=#f5f5f5;fontColor=#333333;strokeColor=#666666;strokeWidth=4;" vertex="1" parent="1">
          <mxGeometry x="390" y="1400" width="160" height="100" as="geometry" />
        </mxCell>
        <mxCell id="VEvwKwhvWMD62rh19tgJ-41" value="&lt;font style=&quot;font-size: 17px;&quot;&gt;Is selection&lt;/font&gt;&lt;div style=&quot;font-size: 17px;&quot;&gt;&lt;font style=&quot;font-size: 17px;&quot;&gt;Valid?&lt;/font&gt;&lt;/div&gt;" style="rhombus;whiteSpace=wrap;html=1;direction=south;fillColor=#fff2cc;strokeColor=#d6b656;gradientColor=#ffd966;strokeWidth=4;" vertex="1" parent="1">
          <mxGeometry x="710" y="1385" width="160" height="130" as="geometry" />
        </mxCell>
        <mxCell id="VEvwKwhvWMD62rh19tgJ-42" value="" style="endArrow=classic;html=1;rounded=0;exitX=1;exitY=0.5;exitDx=0;exitDy=0;" edge="1" parent="1">
          <mxGeometry width="50" height="50" relative="1" as="geometry">
            <mxPoint x="540" y="1449.33" as="sourcePoint" />
            <mxPoint x="710" y="1449.33" as="targetPoint" />
          </mxGeometry>
        </mxCell>
        <mxCell id="VEvwKwhvWMD62rh19tgJ-43" value="" style="endArrow=classic;html=1;rounded=0;exitX=1;exitY=0.5;exitDx=0;exitDy=0;" edge="1" parent="1">
          <mxGeometry width="50" height="50" relative="1" as="geometry">
            <mxPoint x="790" y="1515" as="sourcePoint" />
            <mxPoint x="790" y="1740" as="targetPoint" />
          </mxGeometry>
        </mxCell>
        <mxCell id="VEvwKwhvWMD62rh19tgJ-44" value="&lt;font style=&quot;font-size: 17px;&quot;&gt;NO&lt;/font&gt;" style="edgeLabel;html=1;align=center;verticalAlign=middle;resizable=0;points=[];" vertex="1" connectable="0" parent="VEvwKwhvWMD62rh19tgJ-43">
          <mxGeometry x="-0.2602" relative="1" as="geometry">
            <mxPoint as="offset" />
          </mxGeometry>
        </mxCell>
        <mxCell id="VEvwKwhvWMD62rh19tgJ-45" value="&lt;span style=&quot;font-size: 19px;&quot;&gt;DISPLAY&lt;br&gt;INVALID&lt;br&gt;MESSAGE&lt;/span&gt;" style="shape=parallelogram;perimeter=parallelogramPerimeter;whiteSpace=wrap;html=1;fixedSize=1;align=center;fillColor=#f5f5f5;fontColor=#333333;strokeColor=#666666;strokeWidth=4;" vertex="1" parent="1">
          <mxGeometry x="700" y="1740" width="160" height="100" as="geometry" />
        </mxCell>
        <mxCell id="VEvwKwhvWMD62rh19tgJ-46" value="" style="endArrow=classic;html=1;rounded=0;exitX=1;exitY=0.5;exitDx=0;exitDy=0;entryX=0.455;entryY=1.007;entryDx=0;entryDy=0;entryPerimeter=0;" edge="1" parent="1">
          <mxGeometry width="50" height="50" relative="1" as="geometry">
            <mxPoint x="710" y="1788.6799999999998" as="sourcePoint" />
            <mxPoint x="464.8000000000002" y="1500" as="targetPoint" />
            <Array as="points">
              <mxPoint x="462" y="1788.3000000000002" />
            </Array>
          </mxGeometry>
        </mxCell>
        <mxCell id="VEvwKwhvWMD62rh19tgJ-47" value="&lt;font style=&quot;font-size: 22px;&quot;&gt;addEmployees&lt;/font&gt;" style="ellipse;whiteSpace=wrap;html=1;fillColor=#d5e8d4;strokeColor=#82b366;strokeWidth=4;" vertex="1" parent="1">
          <mxGeometry x="110" y="2230" width="160" height="100" as="geometry" />
        </mxCell>
        <mxCell id="VEvwKwhvWMD62rh19tgJ-51" value="" style="endArrow=classic;html=1;rounded=0;exitX=1;exitY=0.5;exitDx=0;exitDy=0;" edge="1" parent="1">
          <mxGeometry width="50" height="50" relative="1" as="geometry">
            <mxPoint x="189.17000000000007" y="2330" as="sourcePoint" />
            <mxPoint x="189.17000000000007" y="2462.5" as="targetPoint" />
          </mxGeometry>
        </mxCell>
        <mxCell id="VEvwKwhvWMD62rh19tgJ-52" value="&lt;font style=&quot;font-size: 17px;&quot;&gt;Enter fname,&amp;nbsp;&lt;/font&gt;&lt;div&gt;&lt;font style=&quot;font-size: 17px;&quot;&gt;lname, email, contact number,&lt;/font&gt;&lt;/div&gt;&lt;div&gt;&lt;font style=&quot;font-size: 17px;&quot;&gt;title, hire date&lt;/font&gt;&lt;/div&gt;" style="shape=parallelogram;perimeter=parallelogramPerimeter;whiteSpace=wrap;html=1;fixedSize=1;align=center;fillColor=#f5f5f5;fontColor=#333333;strokeColor=#666666;strokeWidth=4;" vertex="1" parent="1">
          <mxGeometry x="110" y="2470" width="160" height="100" as="geometry" />
        </mxCell>
        <mxCell id="VEvwKwhvWMD62rh19tgJ-55" value="&lt;span style=&quot;font-size: 17px;&quot;&gt;Is all info are&lt;br&gt;valid?&lt;/span&gt;" style="rhombus;whiteSpace=wrap;html=1;direction=south;fillColor=#fff2cc;strokeColor=#d6b656;gradientColor=#ffd966;strokeWidth=4;" vertex="1" parent="1">
          <mxGeometry x="110" y="2700" width="160" height="130" as="geometry" />
        </mxCell>
        <mxCell id="VEvwKwhvWMD62rh19tgJ-56" value="" style="endArrow=classic;html=1;rounded=0;exitX=1;exitY=0.5;exitDx=0;exitDy=0;" edge="1" parent="1" target="VEvwKwhvWMD62rh19tgJ-52">
          <mxGeometry width="50" height="50" relative="1" as="geometry">
            <mxPoint x="270" y="2768.68" as="sourcePoint" />
            <mxPoint x="520" y="2460" as="targetPoint" />
            <Array as="points">
              <mxPoint x="518" y="2768.3" />
              <mxPoint x="520" y="2520" />
            </Array>
          </mxGeometry>
        </mxCell>
        <mxCell id="VEvwKwhvWMD62rh19tgJ-58" value="&lt;font style=&quot;font-size: 19px;&quot;&gt;NO&lt;/font&gt;" style="edgeLabel;html=1;align=center;verticalAlign=middle;resizable=0;points=[];" vertex="1" connectable="0" parent="VEvwKwhvWMD62rh19tgJ-56">
          <mxGeometry x="-0.54" y="-4" relative="1" as="geometry">
            <mxPoint as="offset" />
          </mxGeometry>
        </mxCell>
        <mxCell id="VEvwKwhvWMD62rh19tgJ-57" value="" style="endArrow=classic;html=1;rounded=0;exitX=1;exitY=0.5;exitDx=0;exitDy=0;" edge="1" parent="1">
          <mxGeometry width="50" height="50" relative="1" as="geometry">
            <mxPoint x="189.41000000000008" y="2564" as="sourcePoint" />
            <mxPoint x="189.41000000000008" y="2696.5" as="targetPoint" />
          </mxGeometry>
        </mxCell>
        <mxCell id="VEvwKwhvWMD62rh19tgJ-59" value="" style="endArrow=classic;html=1;rounded=0;exitX=1;exitY=0.5;exitDx=0;exitDy=0;" edge="1" parent="1">
          <mxGeometry width="50" height="50" relative="1" as="geometry">
            <mxPoint x="189.41000000000008" y="2830" as="sourcePoint" />
            <mxPoint x="189.41000000000008" y="2962.5" as="targetPoint" />
          </mxGeometry>
        </mxCell>
        <mxCell id="VEvwKwhvWMD62rh19tgJ-60" value="&lt;font style=&quot;font-size: 16px;&quot;&gt;YES&lt;/font&gt;" style="edgeLabel;html=1;align=center;verticalAlign=middle;resizable=0;points=[];" vertex="1" connectable="0" parent="VEvwKwhvWMD62rh19tgJ-59">
          <mxGeometry x="0.2386" y="-1" relative="1" as="geometry">
            <mxPoint as="offset" />
          </mxGeometry>
        </mxCell>
        <mxCell id="VEvwKwhvWMD62rh19tgJ-61" value="&lt;font style=&quot;font-size: 17px;&quot;&gt;STORE&lt;br&gt;EMPLOYEE&lt;/font&gt;" style="strokeWidth=2;html=1;shape=mxgraph.flowchart.database;whiteSpace=wrap;fillColor=#dae8fc;strokeColor=#6c8ebf;" vertex="1" parent="1">
          <mxGeometry x="110" y="2960" width="160" height="100" as="geometry" />
        </mxCell>
        <mxCell id="VEvwKwhvWMD62rh19tgJ-63" value="&lt;font style=&quot;font-size: 22px;&quot;&gt;Return addEmployees&lt;/font&gt;" style="ellipse;whiteSpace=wrap;html=1;fillColor=#d5e8d4;strokeColor=#82b366;strokeWidth=4;" vertex="1" parent="1">
          <mxGeometry x="110" y="3190" width="160" height="100" as="geometry" />
        </mxCell>
        <mxCell id="VEvwKwhvWMD62rh19tgJ-64" value="" style="endArrow=classic;html=1;rounded=0;exitX=1;exitY=0.5;exitDx=0;exitDy=0;" edge="1" parent="1">
          <mxGeometry width="50" height="50" relative="1" as="geometry">
            <mxPoint x="189.41000000000008" y="3060" as="sourcePoint" />
            <mxPoint x="189.41000000000008" y="3192.5" as="targetPoint" />
          </mxGeometry>
        </mxCell>
        <mxCell id="VEvwKwhvWMD62rh19tgJ-67" value="&lt;span style=&quot;font-size: 15px;&quot;&gt;CASE 1:&lt;br&gt;ADD&amp;nbsp;&lt;/span&gt;&lt;div&gt;&lt;span style=&quot;font-size: 15px;&quot;&gt;EMPLOYEES&lt;/span&gt;&lt;/div&gt;" style="rhombus;whiteSpace=wrap;html=1;direction=south;fillColor=#fff2cc;strokeColor=#d6b656;gradientColor=#ffd966;strokeWidth=4;" vertex="1" parent="1">
          <mxGeometry x="1040" y="1385" width="160" height="130" as="geometry" />
        </mxCell>
        <mxCell id="VEvwKwhvWMD62rh19tgJ-68" value="" style="endArrow=classic;html=1;rounded=0;exitX=1;exitY=0.5;exitDx=0;exitDy=0;" edge="1" parent="1">
          <mxGeometry width="50" height="50" relative="1" as="geometry">
            <mxPoint x="870" y="1449.29" as="sourcePoint" />
            <mxPoint x="1040" y="1449.29" as="targetPoint" />
          </mxGeometry>
        </mxCell>
        <mxCell id="VEvwKwhvWMD62rh19tgJ-69" value="" style="verticalLabelPosition=bottom;verticalAlign=top;html=1;shape=process;whiteSpace=wrap;rounded=1;size=0.14;arcSize=6;" vertex="1" parent="1">
          <mxGeometry x="640" y="2600" width="160" height="100" as="geometry" />
        </mxCell>
        <mxCell id="VEvwKwhvWMD62rh19tgJ-70" value="" style="endArrow=classic;html=1;rounded=0;exitX=1;exitY=0.5;exitDx=0;exitDy=0;" edge="1" parent="1">
          <mxGeometry width="50" height="50" relative="1" as="geometry">
            <mxPoint x="1119.29" y="1518" as="sourcePoint" />
            <mxPoint x="1119.29" y="1650.5" as="targetPoint" />
          </mxGeometry>
        </mxCell>
        <mxCell id="VEvwKwhvWMD62rh19tgJ-71" value="&lt;font style=&quot;font-size: 23px;&quot;&gt;1&lt;/font&gt;" style="ellipse;whiteSpace=wrap;html=1;aspect=fixed;fillColor=#e1d5e7;strokeColor=#9673a6;" vertex="1" parent="1">
          <mxGeometry x="1080" y="1650" width="80" height="80" as="geometry" />
        </mxCell>
        <mxCell id="VEvwKwhvWMD62rh19tgJ-72" value="" style="endArrow=classic;html=1;rounded=0;exitX=1;exitY=0.5;exitDx=0;exitDy=0;" edge="1" parent="1">
          <mxGeometry width="50" height="50" relative="1" as="geometry">
            <mxPoint x="719.29" y="2470" as="sourcePoint" />
            <mxPoint x="719.29" y="2602.5" as="targetPoint" />
          </mxGeometry>
        </mxCell>
        <mxCell id="VEvwKwhvWMD62rh19tgJ-73" value="&lt;font style=&quot;font-size: 23px;&quot;&gt;1&lt;/font&gt;" style="ellipse;whiteSpace=wrap;html=1;aspect=fixed;fillColor=#e1d5e7;strokeColor=#9673a6;" vertex="1" parent="1">
          <mxGeometry x="680" y="2390" width="80" height="80" as="geometry" />
        </mxCell>
        <mxCell id="VEvwKwhvWMD62rh19tgJ-74" value="" style="endArrow=classic;html=1;rounded=0;exitX=1;exitY=0.5;exitDx=0;exitDy=0;" edge="1" parent="1">
          <mxGeometry width="50" height="50" relative="1" as="geometry">
            <mxPoint x="719.29" y="2700" as="sourcePoint" />
            <mxPoint x="719.29" y="2832.5" as="targetPoint" />
          </mxGeometry>
        </mxCell>
        <mxCell id="VEvwKwhvWMD62rh19tgJ-75" value="&lt;span style=&quot;font-size: 23px;&quot;&gt;O&lt;/span&gt;" style="ellipse;whiteSpace=wrap;html=1;aspect=fixed;fillColor=#e1d5e7;strokeColor=#9673a6;" vertex="1" parent="1">
          <mxGeometry x="680" y="2830" width="80" height="80" as="geometry" />
        </mxCell>
        <mxCell id="VEvwKwhvWMD62rh19tgJ-76" value="&lt;font style=&quot;font-size: 20px;&quot;&gt;addEmployee&lt;/font&gt;" style="text;html=1;align=center;verticalAlign=middle;whiteSpace=wrap;rounded=0;" vertex="1" parent="1">
          <mxGeometry x="690" y="2635" width="60" height="30" as="geometry" />
        </mxCell>
        <mxCell id="VEvwKwhvWMD62rh19tgJ-77" value="&lt;font style=&quot;font-size: 22px;&quot;&gt;Display&lt;br&gt;Employees&lt;/font&gt;" style="ellipse;whiteSpace=wrap;html=1;fillColor=#d5e8d4;strokeColor=#82b366;strokeWidth=4;" vertex="1" parent="1">
          <mxGeometry x="1050" y="2230" width="160" height="100" as="geometry" />
        </mxCell>
        <mxCell id="VEvwKwhvWMD62rh19tgJ-78" value="" style="endArrow=classic;html=1;rounded=0;exitX=1;exitY=0.5;exitDx=0;exitDy=0;" edge="1" parent="1">
          <mxGeometry width="50" height="50" relative="1" as="geometry">
            <mxPoint x="1129.29" y="2330" as="sourcePoint" />
            <mxPoint x="1129.29" y="2462.5" as="targetPoint" />
          </mxGeometry>
        </mxCell>
      </root>
    </mxGraphModel>
  </diagram>
</mxfile>
